<?xml version="1.0" encoding="iso-8859-1"?>
<!-- Generator: Adobe Illustrator 19.0.0, SVG Export Plug-In . SVG Version: 6.00 Build 0)  -->
<svg version="1.1" id="Layer_1" xmlns="http://www.w3.org/2000/svg" xmlns:xlink="http://www.w3.org/1999/xlink" x="0px" y="0px"
	 viewBox="0 0 512 512" style="enable-background:new 0 0 512 512;" xml:space="preserve">
<path style="fill:#FFDE04;" d="M426.828,311.57l25.778,87.262l-91.066,2.535l-30.426,85.784l-75.114-51.554l-75.114,51.554
	l-30.426-85.784l-91.066-2.535l25.778-87.262l-72.156-55.569l72.156-55.569l-25.778-87.263l91.066-2.535l30.426-85.784
	l75.114,51.554l75.114-51.554l30.426,85.784l91.066,2.535l-25.778,87.263l72.156,55.569L426.828,311.57z M382.773,256.001
	c0-70.043-56.732-126.774-126.774-126.774s-126.774,56.731-126.774,126.774c0,70.042,56.732,126.774,126.774,126.774
	C326.043,382.774,382.773,326.043,382.773,256.001z"/>
<path style="fill:#FFD311;" d="M256.001,129.227c70.042,0,126.774,56.731,126.774,126.774c0,70.042-56.732,126.774-126.774,126.774
	s-126.774-56.732-126.774-126.774C129.227,185.957,185.957,129.227,256.001,129.227z"/>
<path style="fill:#FBC319;" d="M234.871,256.001c0-51.164,30.335-95.111,73.952-115.147c-16.095-7.393-33.944-11.627-52.822-11.627
	c-70.042,0-126.774,56.731-126.774,126.774c0,70.042,56.732,126.774,126.774,126.774c18.88,0,36.728-4.235,52.822-11.627
	C265.205,351.112,234.871,307.163,234.871,256.001z"/>
<path d="M335.144,499.55l-79.143-54.319l-79.142,54.319l-32.062-90.395l-95.943-2.671l27.16-91.944L0,256.001l76.013-58.539
	l-27.16-91.945l95.943-2.671l32.062-90.395l79.142,54.319l79.143-54.319l32.061,90.395l95.944,2.671l-27.16,91.944L512,255.999
	l-76.013,58.539l27.16,91.944l-95.944,2.671L335.144,499.55z M255.999,425.964l71.084,48.788l28.791-81.172l86.19-2.4
	l-24.395-82.582l68.298-52.599l-68.298-52.599l24.395-82.582l-86.19-2.4l-28.791-81.172l-71.084,48.788l-71.084-48.788
	l-28.791,81.172l-86.188,2.4l24.395,82.582l-68.298,52.599l68.298,52.599l-24.395,82.582l86.188,2.4l28.791,81.172L255.999,425.964z
	"/>
<path d="M255.999,390.717c-74.283,0-134.716-60.433-134.716-134.716s60.433-134.716,134.716-134.716S390.716,181.718,390.716,256
	S330.283,390.717,255.999,390.717z M255.999,137.169c-65.523,0-118.832,53.308-118.832,118.832s53.308,118.832,118.832,118.832
	s118.832-53.307,118.832-118.832S321.523,137.169,255.999,137.169z"/>
<path style="fill:#FFFFFF;" d="M255.999,332.612c-42.244,0-76.611-34.368-76.611-76.611h15.885
	c0,33.485,27.242,60.726,60.726,60.726V332.612z"/>
<path d="M332.612,256.001h-15.885c0-33.485-27.242-60.727-60.727-60.727v-15.885C298.243,179.388,332.612,213.757,332.612,256.001z"
	/>
<rect x="277.125" y="306.162" width="21.129" height="15.885"/>
<g>
	<rect x="298.262" y="285.036" style="fill:#FFFFFF;" width="21.129" height="15.885"/>
	<rect x="192.608" y="79.021" style="fill:#FFFFFF;" width="21.129" height="15.885"/>
	<rect x="192.608" y="417.091" style="fill:#FFFFFF;" width="21.129" height="15.885"/>
</g>
<rect x="298.262" y="417.091" width="21.129" height="15.885"/>
<rect x="298.262" y="79.021" width="21.129" height="15.885"/>
<rect x="393.338" y="142.412" style="fill:#FFFFFF;" width="21.129" height="15.885"/>
<rect x="97.532" y="142.412" width="21.129" height="15.885"/>
<rect x="65.837" y="248.056" style="fill:#FFFFFF;" width="21.129" height="15.885"/>
<rect x="425.033" y="248.056" width="21.129" height="15.885"/>
<rect x="97.532" y="353.7" width="21.129" height="15.885"/>
<rect x="393.338" y="353.7" style="fill:#FFFFFF;" width="21.129" height="15.885"/>
<g>
</g>
<g>
</g>
<g>
</g>
<g>
</g>
<g>
</g>
<g>
</g>
<g>
</g>
<g>
</g>
<g>
</g>
<g>
</g>
<g>
</g>
<g>
</g>
<g>
</g>
<g>
</g>
<g>
</g>
</svg>
